# xmcd
# 
# Track frame offsets:
#     150
#     22790
#     47737
#     70590
#     94367
#     118555
#     140422
#     162332
#     184430
#     208507
#     229480
#     250595
# 
# Disc length: 3681
# 
# Revision: 3
# Processed by: cddbd v1.5.2PL0 Copyright (c) Steve Scherf et al.
# Submitted via: BonkEnc v1.0
# 
DISCID=a30e5f0c
DTITLE=槇原敬之 - EXPLOPER
DYEAR=2004
DGENRE=
TTITLE0=優しい歌が歌えない
TTITLE1=夏は憶えている
TTITLE2=Tag Team
TTITLE3=武士は食わねど高楊枝
TTITLE4=Happy Ending
TTITLE5=君の名前を呼んだ後に
TTITLE6=とりあえず何か食べよう
TTITLE7=ハトマメ 〜Say Hello To The World.〜
TTITLE8=The Fog
TTITLE9=世界に一つだけの花
TTITLE10=Boy, I'm Gonna Try So Hard
TTITLE11=僕が一番欲しかったもの
EXTD=YEAR: 2004
EXTT0=
EXTT1=
EXTT2=
EXTT3=
EXTT4=
EXTT5=
EXTT6=
EXTT7=
EXTT8=
EXTT9=
EXTT10=
EXTT11=
PLAYORDER=
